<svg width="1400" height="880" viewBox="0 0 1400 880" fill="none" xmlns="http://www.w3.org/2000/svg">
<rect width="1400" height="880" rx="16" fill="#F8FAFC"/>
<rect x="1" y="1" width="1398" height="878" rx="15" stroke="#E2E8F0" stroke-width="2"/>
<rect x="20" y="20" width="300" height="840" rx="10" fill="#FFFFFF" stroke="#E2E8F0" stroke-width="2"/>
<rect x="45" y="45" width="28" height="28" rx="6" fill="#2563EB" fill-opacity="0.12"/>
<rect x="84" y="50" width="120" height="18" rx="6" fill="#0F172A"/>
<rect x="40" y="100" width="260" height="44" rx="10" fill="#2563EB"/>
<rect x="132" y="116" width="80" height="12" rx="6" fill="white"/>
<rect x="40" y="170" width="260" height="2" fill="#E2E8F0"/>
<rect x="40" y="188" width="64" height="14" rx="6" fill="#0F172A"/>
<rect x="40" y="216" width="220" height="20" rx="6" fill="#0F172A"/>
<rect x="40" y="246" width="140" height="12" rx="6" fill="#64748B"/>
<rect x="40" y="812" width="260" height="40" rx="10" fill="#FFFFFF" stroke="#E2E8F0" stroke-width="2"/>
<rect x="122" y="826" width="96" height="12" rx="6" fill="#334155"/>
<rect x="340" y="20" width="1040" height="840" rx="10" fill="#FFFFFF" stroke="#E2E8F0" stroke-width="2"/>
<rect x="360" y="40" width="40" height="40" rx="8" fill="#F1F5F9"/>
<rect x="420" y="42" width="940" height="36" rx="18" fill="#FFFFFF" stroke="#CBD5E1" stroke-width="2"/>
<rect x="440" y="54" width="88" height="12" rx="6" fill="#94A3B8"/>
<rect x="360" y="102" width="1000" height="84" rx="8" fill="#F8FAFC" stroke="#E2E8F0" stroke-width="2"/>
<rect x="380" y="118" width="140" height="10" rx="5" fill="#334155"/>
<rect x="380" y="136" width="300" height="34" rx="9" fill="#FFFFFF" stroke="#CBD5E1" stroke-width="2"/>
<rect x="700" y="118" width="64" height="10" rx="5" fill="#334155"/>
<rect x="700" y="136" width="160" height="34" rx="9" fill="#FFFFFF" stroke="#CBD5E1" stroke-width="2"/>
<rect x="872" y="136" width="220" height="34" rx="9" fill="#FFFFFF" stroke="#CBD5E1" stroke-width="2"/>
<rect x="1112" y="118" width="90" height="10" rx="5" fill="#334155"/>
<rect x="1112" y="136" width="248" height="34" rx="9" fill="#FFFFFF" stroke="#CBD5E1" stroke-width="2"/>
<rect x="360" y="206" width="450" height="634" rx="8" fill="#FFFFFF" stroke="#E2E8F0" stroke-width="2"/>
<rect x="382" y="228" width="80" height="14" rx="7" fill="#0F172A"/>
<rect x="730" y="230" width="54" height="10" rx="5" fill="#94A3B8"/>
<rect x="402" y="272" width="220" height="22" rx="6" fill="#0F172A"/>
<rect x="402" y="304" width="160" height="12" rx="6" fill="#94A3B8"/>
<rect x="400" y="350" width="410" height="2" fill="#E2E8F0"/>
<rect x="830" y="206" width="530" height="634" rx="8" fill="#F8FAFC" stroke="#E2E8F0" stroke-width="2"/>
<rect x="960" y="265" width="270" height="20" rx="10" fill="#64748B"/>
</svg>
